HIERARCHY
ROOT Hips
{
	OFFSET -0.001795 -0.223333 0.028219
	CHANNELS 6 Xposition Yposition Zposition Zrotation Yrotation Xrotation 
	JOINT LeftUpLeg
	{
		OFFSET 0.069520 -0.091406 -0.006815
		CHANNELS 3 Zrotation Yrotation Xrotation
		JOINT LeftLeg
		{
			OFFSET 0.034277 -0.375199 -0.004496
			CHANNELS 3 Zrotation Yrotation Xrotation
			JOINT LeftFoot
			{
				OFFSET -0.013596 -0.397961 -0.043693
				CHANNELS 3 Zrotation Yrotation Xrotation
				JOINT LeftToe
				{
					OFFSET 0.026358 -0.055791 0.119288
					CHANNELS 3 Zrotation Yrotation Xrotation
					End Site
					{
						OFFSET 0.000000 0.000000 0.000000
					}
				}
			}
		}
	}
	JOINT RightUpLeg
	{
		OFFSET -0.067670 -0.090522 -0.004320
		CHANNELS 3 Zrotation Yrotation Xrotation
		JOINT RightLeg
		{
			OFFSET -0.038290 -0.382569 -0.008850
			CHANNELS 3 Zrotation Yrotation Xrotation
			JOINT RightFoot
			{
				OFFSET 0.015774 -0.398415 -0.042312
				CHANNELS 3 Zrotation Yrotation Xrotation
				JOINT RightToe
				{
					OFFSET -0.025372 -0.048144 0.123348
					CHANNELS 3 Zrotation Yrotation Xrotation
					End Site
					{
						OFFSET 0.000000 0.000000 0.000000
					}
				}
			}
		}
	}
	JOINT Spine
	{
		OFFSET -0.002533 0.108963 -0.026696
		CHANNELS 3 Zrotation Yrotation Xrotation
		JOINT Spine1
		{
			OFFSET 0.005487 0.135180 0.001092
			CHANNELS 3 Zrotation Yrotation Xrotation
			JOINT Spine2
			{
				OFFSET 0.001457 0.052922 0.025425
				CHANNELS 3 Zrotation Yrotation Xrotation
				JOINT Neck
				{
					OFFSET -0.002778 0.213870 -0.042857
					CHANNELS 3 Zrotation Yrotation Xrotation
					JOINT Head
					{
						OFFSET 0.005152 0.064970 0.051349
						CHANNELS 3 Zrotation Yrotation Xrotation
						End Site
						{
							OFFSET 0.000000 0.000000 0.000000
						}
					}
				}
				JOINT LeftShoulder
				{
					OFFSET 0.078845 0.121749 -0.034090
					CHANNELS 3 Zrotation Yrotation Xrotation
					JOINT LeftArm
					{
						OFFSET 0.090977 0.030469 -0.008868
						CHANNELS 3 Zrotation Yrotation Xrotation
						JOINT LeftForeArm
						{
							OFFSET 0.259612 -0.012772 -0.027456
							CHANNELS 3 Zrotation Yrotation Xrotation
							JOINT LeftHand
							{
								OFFSET 0.249234 0.008986 -0.001171
								CHANNELS 3 Zrotation Yrotation Xrotation
								End Site
								{
									OFFSET 0.000000 0.000000 0.000000
								}
							}
						}
					}
				}
				JOINT RightShoulder
				{
					OFFSET -0.081759 0.118833 -0.038615
					CHANNELS 3 Zrotation Yrotation Xrotation
					JOINT RightArm
					{
						OFFSET -0.096012 0.032551 -0.009143
						CHANNELS 3 Zrotation Yrotation Xrotation
						JOINT RightForeArm
						{
							OFFSET -0.253742 -0.013329 -0.021401
							CHANNELS 3 Zrotation Yrotation Xrotation
							JOINT RightHand
							{
								OFFSET -0.255298 0.007772 -0.005559
								CHANNELS 3 Zrotation Yrotation Xrotation
								End Site
								{
									OFFSET 0.000000 0.000000 0.000000
								}
							}
						}
					}
				}
			}
		}
	}
}
MOTION
Frames: 18
Frame Time: 0.050000
-0.160731 0.941084 -0.355886 -4.863349 8.200366 -3.196617 6.694251 -0.172211 0.049772 -3.422023 0.300993 1.259595 -69.685171 -59.071918 51.126113 0.000000 0.000000 0.000000 -5.000261 0.628226 -12.898734 4.645047 -1.075630 20.404415 -8.330951 -19.614989 12.051232 0.000000 0.000000 0.000000 3.353284 -0.599277 7.870544 -1.302865 0.714110 -1.963477 -3.571667 7.436367 10.789269 11.075141 -3.150741 -22.214996 0.000000 0.000000 0.000000 -17.024824 -15.815633 3.310208 -42.267793 -13.879449 0.174764 -7.624797 -22.607293 1.856150 0.000000 0.000000 0.000000 19.618110 4.153069 4.038345 57.113431 13.416216 -0.204350 5.084067 19.232720 1.710045 0.000000 0.000000 0.000000 
-0.149563 0.942820 -0.357260 -5.256404 7.430247 -3.378574 5.959432 -0.114669 0.793358 -2.722166 0.247567 0.454334 -68.261489 -58.515807 50.014613 0.000000 0.000000 0.000000 -1.690385 1.014777 -12.612035 3.878524 -0.739518 18.637864 -14.336963 -29.627991 14.741867 0.000000 0.000000 0.000000 3.078706 -0.591282 8.066276 -0.745444 0.464321 -2.228132 -4.186172 7.313011 9.602273 11.648948 -3.961457 -20.181099 0.000000 0.000000 0.000000 -17.395236 -15.822622 3.347888 -42.230098 -12.914104 -0.056811 -7.128678 -22.746900 1.781890 0.000000 0.000000 0.000000 19.645340 3.767647 3.674377 57.878882 12.372732 -0.533622 6.480617 20.586853 2.101869 0.000000 0.000000 0.000000 
-0.141187 0.943711 -0.357264 -4.830701 7.327725 -3.005459 4.246049 -0.049955 1.002428 -1.511843 0.151073 -0.382542 -67.884752 -58.281921 49.791364 0.000000 0.000000 0.000000 0.452368 1.187369 -11.886460 0.469274 0.256773 16.050447 -16.975709 -33.118064 17.245151 0.000000 0.000000 0.000000 2.841128 -0.557201 7.826868 -1.673081 0.925882 -3.530254 -3.810980 6.060548 9.740220 10.979003 -4.065975 -18.631666 0.000000 0.000000 0.000000 -18.785620 -14.406292 2.897733 -41.364643 -13.083480 -0.071390 -8.059016 -21.262379 1.913760 0.000000 0.000000 0.000000 20.180476 4.328774 3.716739 57.941565 11.702959 -0.909307 6.996077 20.565491 2.157368 0.000000 0.000000 0.000000 
-0.135363 0.943732 -0.356146 -4.880985 6.693803 -2.958848 3.813224 0.001361 1.634481 -1.351962 0.157508 -1.214119 -66.812403 -57.928236 48.885216 0.000000 0.000000 0.000000 1.877139 1.154415 -10.180526 -2.559775 0.941028 12.555368 -17.001376 -32.769468 18.710378 0.000000 0.000000 0.000000 2.959998 -0.446139 6.325991 -1.958848 1.032449 -2.952259 -4.067080 7.138042 9.712487 10.875835 -4.004848 -18.185878 0.000000 0.000000 0.000000 -18.732424 -14.339582 2.632055 -42.792265 -12.698870 -0.145246 -8.343599 -20.797699 1.888893 0.000000 0.000000 0.000000 20.901413 3.602637 3.579583 57.310564 11.675619 -1.028385 8.072162 21.225699 2.458446 0.000000 0.000000 0.000000 
-0.132198 0.942887 -0.354949 -4.402219 6.722538 -3.035041 2.920699 0.086505 2.553751 -1.059661 0.161591 -2.410428 -66.962814 -57.765458 49.151915 0.000000 0.000000 0.000000 1.720021 0.872324 -7.675971 -3.618380 0.970254 8.597672 -16.786506 -32.515460 18.612080 0.000000 0.000000 0.000000 2.861648 -0.390333 5.673541 -2.555109 1.308813 -3.427393 -4.296769 7.385215 10.265589 10.753295 -4.047762 -17.567573 0.000000 0.000000 0.000000 -19.163216 -14.246194 2.480004 -42.997255 -12.406986 -0.266657 -9.214780 -19.920285 1.963678 0.000000 0.000000 0.000000 21.111826 3.265981 3.511497 57.941474 11.679651 -1.071143 8.461295 21.824252 2.641103 0.000000 0.000000 0.000000 
-0.131165 0.941725 -0.354676 -4.240837 6.473041 -2.854638 2.573566 0.093559 2.392158 -0.906752 0.148577 -2.322351 -66.509569 -57.913550 48.545044 0.000000 0.000000 0.000000 1.444338 0.787260 -7.050991 -3.586819 0.883078 7.171324 -16.570768 -32.323193 18.238272 0.000000 0.000000 0.000000 2.722552 -0.338357 5.040210 -2.883618 1.443634 -2.948919 -4.393472 7.994654 9.873034 11.218191 -4.391702 -17.102270 0.000000 0.000000 0.000000 -19.133523 -14.057696 2.228523 -43.606330 -12.104650 -0.309589 -9.563302 -19.992956 2.004347 0.000000 0.000000 0.000000 21.049327 2.758161 3.321921 57.793350 11.695860 -1.030112 9.474285 22.464782 2.951631 0.000000 0.000000 0.000000 
-0.131550 0.941309 -0.355298 -4.303237 5.921074 -3.153669 2.406171 0.121068 2.632107 -0.481957 0.110975 -2.110841 -65.617550 -58.210836 47.341992 0.000000 0.000000 0.000000 0.673269 0.695389 -6.571780 -2.045471 0.585088 6.687625 -16.198059 -32.006532 17.446335 0.000000 0.000000 0.000000 2.726325 -0.323939 4.892204 -3.139842 1.560481 -3.363687 -4.212792 8.802222 10.677232 11.215085 -4.230447 -17.610217 0.000000 0.000000 0.000000 -19.117798 -13.642275 1.897534 -44.457353 -11.886695 -0.448053 -9.826407 -20.643936 2.088670 0.000000 0.000000 0.000000 21.218997 2.821261 3.540477 57.293338 12.352928 -0.861690 9.337073 22.592901 2.962281 0.000000 0.000000 0.000000 
-0.132829 0.942200 -0.356142 -4.414833 5.382401 -3.342453 2.376351 0.143981 2.896701 -0.088616 0.083292 -2.220520 -64.743030 -58.291948 46.315407 0.000000 0.000000 0.000000 -0.277950 0.654711 -6.674246 0.022449 0.228700 6.964493 -15.862040 -31.667964 16.854349 0.000000 0.000000 0.000000 2.637572 -0.322942 4.971192 -3.302087 1.631738 -3.759691 -3.902310 9.296792 11.514956 11.673570 -4.518887 -17.665874 0.000000 0.000000 0.000000 -19.425752 -13.343338 1.679704 -44.762643 -11.729336 -0.554483 -10.008125 -20.488185 2.102987 0.000000 0.000000 0.000000 21.095284 3.175540 3.803051 57.519659 12.841162 -0.680230 9.189376 22.943557 2.997595 0.000000 0.000000 0.000000 
-0.134964 0.942659 -0.356044 -4.556543 5.390053 -3.404906 2.787764 0.131654 2.983986 -0.280099 0.100955 -2.298010 -64.820980 -58.294596 46.396219 0.000000 0.000000 0.000000 -0.948056 0.659265 -7.145609 1.717819 -0.068474 7.849922 -15.896128 -31.802795 16.520065 0.000000 0.000000 0.000000 2.766111 -0.327495 4.962757 -3.494460 1.714114 -3.235944 -3.736689 9.210715 11.562057 11.905814 -4.650445 -17.820765 0.000000 0.000000 0.000000 -19.654292 -13.005871 1.515007 -44.961450 -11.684520 -0.588714 -10.017075 -20.642076 2.125214 0.000000 0.000000 0.000000 21.243323 3.192402 3.797092 57.083411 13.386819 -0.463259 8.864185 22.832750 2.910428 0.000000 0.000000 0.000000 
-0.138313 0.942917 -0.354702 -4.510236 4.976517 -3.549877 3.179234 0.158748 3.689585 -0.668450 0.151824 -3.034245 -64.322002 -58.153938 45.931679 0.000000 0.000000 0.000000 -2.112353 0.631619 -7.679879 4.077854 -0.524213 9.070018 -15.665911 -31.672502 15.681128 0.000000 0.000000 0.000000 2.714832 -0.329058 5.052185 -3.602430 1.759900 -3.222406 -3.366010 9.452057 11.946367 12.206678 -4.766869 -18.223984 0.000000 0.000000 0.000000 -19.744433 -12.806999 1.438127 -44.894520 -11.625626 -0.655979 -10.307309 -20.302088 2.150317 0.000000 0.000000 0.000000 21.403514 3.456018 3.970852 56.528872 13.662176 -0.437932 8.727676 22.579321 2.836729 0.000000 0.000000 0.000000 
-0.143373 0.942789 -0.352156 -4.583435 4.988268 -3.593183 3.715142 0.160335 4.256345 -0.838983 0.180983 -3.727842 -64.519198 -58.379837 45.963042 0.000000 0.000000 0.000000 -2.811135 0.596431 -7.836180 1.736401 -0.042262 9.669338 -11.461481 -24.836904 16.370172 0.000000 0.000000 0.000000 2.865148 -0.324226 4.900340 -3.488895 1.705098 -2.253481 -3.444765 9.282338 11.170335 12.329996 -4.967393 -17.754690 0.000000 0.000000 0.000000 -19.571991 -12.856316 1.519220 -45.072675 -11.211193 -0.778168 -10.465411 -20.912761 2.239090 0.000000 0.000000 0.000000 21.961972 3.054115 3.711371 55.797131 13.258162 -0.648185 9.087846 22.124553 2.817676 0.000000 0.000000 0.000000 
-0.150466 0.941682 -0.348503 -4.593825 4.877224 -3.912241 4.108094 0.181317 5.085054 -0.626720 0.178515 -4.180919 -64.525235 -59.090857 45.415482 0.000000 0.000000 0.000000 -3.720907 0.516179 -7.589185 -2.213070 0.766829 9.632633 -4.037441 -12.640534 17.966941 0.000000 0.000000 0.000000 2.927042 -0.346345 5.226304 -3.382605 1.657540 -2.153240 -3.146891 9.230256 11.088217 12.523769 -5.007909 -18.172037 0.000000 0.000000 0.000000 -19.744852 -12.302631 1.257349 -45.030498 -11.247103 -0.776437 -10.367833 -21.054047 2.241737 0.000000 0.000000 0.000000 21.980447 3.407354 3.865859 55.404494 13.134476 -0.719364 8.648463 21.495478 2.616520 0.000000 0.000000 0.000000 
-0.159659 0.940184 -0.343475 -4.319694 4.916921 -3.787897 4.575886 0.165629 5.437792 -0.843726 0.199731 -4.507339 -64.724470 -59.737456 45.131915 0.000000 0.000000 0.000000 -4.532629 0.466703 -7.666649 -6.100245 1.496258 9.045923 4.272566 0.636444 20.226545 0.000000 0.000000 0.000000 3.052783 -0.347052 5.147890 -3.259541 1.598505 -1.888383 -3.194859 9.027987 10.590790 12.393284 -4.949979 -18.090067 0.000000 0.000000 0.000000 -19.297414 -12.087172 1.250013 -45.090384 -10.924748 -0.900941 -10.605284 -21.974578 2.375541 0.000000 0.000000 0.000000 21.895562 3.058615 3.571350 55.376491 12.614602 -0.894725 8.146976 21.182431 2.475480 0.000000 0.000000 0.000000 
-0.171170 0.937615 -0.337053 -3.649464 5.067799 -3.696762 4.717904 0.166645 5.733016 -0.950907 0.205522 -4.480595 -65.099542 -60.709072 44.797841 0.000000 0.000000 0.000000 -5.579441 0.376175 -7.310865 -7.489166 1.699470 8.380980 9.352070 8.926070 20.637172 0.000000 0.000000 0.000000 2.927958 -0.350538 5.273961 -2.999523 1.478553 -1.844556 -3.237311 9.005073 10.307953 12.429213 -4.721231 -19.059384 0.000000 0.000000 0.000000 -19.415190 -11.987172 1.167955 -45.296545 -11.428446 -0.698694 -10.104236 -21.940764 2.277177 0.000000 0.000000 0.000000 21.839683 2.998618 3.519961 55.081252 12.541946 -0.908865 7.924202 21.128375 2.422678 0.000000 0.000000 0.000000 
-0.185536 0.935115 -0.329249 -2.954251 4.997359 -3.815102 5.075961 0.159464 6.066737 -1.137033 0.205410 -3.898786 -65.103431 -61.836268 43.944754 0.000000 0.000000 0.000000 -6.263008 0.302121 -6.661903 -6.065450 1.433387 8.361355 8.935013 9.458057 18.294821 0.000000 0.000000 0.000000 2.998245 -0.353378 5.310406 -2.777267 1.370933 -1.438218 -3.517891 9.005078 9.721903 12.314410 -4.742214 -18.620342 0.000000 0.000000 0.000000 -19.040625 -12.007021 1.222554 -45.544079 -11.658989 -0.605098 -9.773303 -22.088967 2.224079 0.000000 0.000000 0.000000 21.704349 3.033644 3.494018 54.902800 12.962888 -0.656095 7.106185 21.019892 2.258941 0.000000 0.000000 0.000000 
-0.203427 0.932081 -0.320408 -2.304421 5.284448 -3.779547 5.725672 0.107483 5.993015 -1.270055 0.193848 -2.930313 -65.695815 -63.343962 43.469151 0.000000 0.000000 0.000000 -6.559447 0.247454 -5.867573 -4.822114 1.177505 8.060593 8.184672 9.769683 15.410812 0.000000 0.000000 0.000000 3.064492 -0.372301 5.533966 -2.314552 1.154621 -1.366006 -3.754439 8.810443 9.217000 12.049710 -4.431529 -19.165028 0.000000 0.000000 0.000000 -19.367615 -12.081482 1.208864 -45.580512 -12.209418 -0.342078 -9.605696 -22.042780 2.188147 0.000000 0.000000 0.000000 21.439155 2.879820 3.339783 54.424816 12.954382 -0.614536 7.504644 21.244057 2.354852 0.000000 0.000000 0.000000 
-0.224940 0.930279 -0.310603 -1.900491 5.399012 -3.864555 6.769022 0.032736 5.984658 -1.175483 0.161194 -1.789707 -65.955003 -64.934625 42.582621 0.000000 0.000000 0.000000 -6.088701 0.232424 -5.024621 -3.926111 0.997766 7.862359 7.505663 10.077721 12.695134 0.000000 0.000000 0.000000 3.422470 -0.385000 5.506412 -2.145873 1.059390 -0.582080 -3.974367 8.512031 8.115611 11.763688 -4.276558 -19.043148 0.000000 0.000000 0.000000 -19.346770 -12.459535 1.438066 -45.599809 -13.044778 0.040636 -8.993182 -21.783052 2.056376 0.000000 0.000000 0.000000 20.904765 3.515646 3.557405 54.824270 13.513392 -0.167092 6.475153 21.097657 2.135939 0.000000 0.000000 0.000000 
-0.249845 0.929209 -0.300251 -1.450580 5.891098 -4.269770 7.966453 -0.056961 6.251134 -0.959056 0.113960 -0.681866 -67.230378 -66.545837 42.788784 0.000000 0.000000 0.000000 -5.043082 0.225148 -4.197145 -3.654102 0.985398 8.506623 6.612327 10.015599 9.893665 0.000000 0.000000 0.000000 3.522129 -0.435613 6.159938 -1.655559 0.828969 -0.584545 -4.482255 8.099668 7.779957 11.671107 -4.174934 -19.257729 0.000000 0.000000 0.000000 -19.686619 -12.532917 1.442160 -45.798199 -14.247087 0.524049 -8.470522 -21.388758 1.929208 0.000000 0.000000 0.000000 21.198507 3.188992 3.353043 54.392152 14.334664 0.188323 6.860403 20.793256 2.160114 0.000000 0.000000 0.000000 
